P3
40 40
255
254 255 255 255 255 255 255 255 255 255 254 255 255 255 255 254 255 255 251 255 255 248 255 255 247 255 255 249 253 255 254 253 255 255 253 255 254 252 253 251 255 251 242 255 248 238 255 246 255 253 247 255 255 250 255 254 252 255 254 253 255 254 250 255 254 247 255 255 250 251 255 254 252 255 255 255 252 255 255 249 255 255 251 255 255 253 255 255 255 255 249 252 255 251 255 255 255 255 255 255 255 255 255 255 255 255 255 255 255 255 255 255 255 255 255 255 255 255 255 255 
255 255 255 255 255 255 255 255 255 255 255 255 255 255 255 255 254 255 254 255 255 252 255 255 252 255 255 254 255 255 255 252 255 255 252 255 255 249 252 255 255 253 248 255 248 248 255 250 255 255 246 251 252 246 254 255 253 252 254 253 254 253 251 255 255 251 251 252 247 252 255 251 252 255 255 252 253 255 255 252 255 255 252 254 255 254 253 255 255 253 252 255 255 251 255 255 255 255 255 255 255 255 255 255 255 255 255 255 255 255 255 255 255 255 255 255 255 255 255 255 
255 255 255 255 255 255 254 255 255 254 255 255 255 255 255 255 254 255 255 254 255 255 253 255 249 244 248 255 253 255 255 251 254 255 251 255 255 250 254 255 251 255 255 252 255 255 252 254 255 255 246 253 255 249 251 255 253 251 255 255 254 255 255 255 254 255 255 254 252 254 255 250 251 255 247 252 255 248 254 255 250 255 255 253 255 255 253 255 255 251 254 255 250 246 249 238 255 255 255 255 255 255 255 255 255 255 255 255 255 255 255 255 255 255 255 255 255 255 255 255 
255 254 255 255 255 255 254 255 255 254 255 255 255 255 255 255 254 255 255 253 255 255 252 253 255 253 251 255 253 251 255 253 250 255 249 249 255 252 255 255 248 253 255 251 255 255 248 255 255 255 251 254 255 253 247 253 253 251 254 255 254 252 255 254 248 255 255 252 255 255 255 251 252 255 242 251 255 243 244 254 243 251 255 255 250 251 255 254 254 254 255 255 248 255 255 241 255 255 255 255 255 255 255 255 255 255 255 255 255 255 255 255 255 255 255 255 255 255 255 255 
255 255 255 255 255 255 255 255 255 255 255 255 255 255 255 255 255 253 255 255 251 255 255 250 255 254 250 38 35 30 46 45 40 49 50 45 41 43 42 44 48 51 36 37 42 49 49 57 40 41 46 41 42 47 254 255 255 255 253 255 255 251 255 255 250 255 48 37 51 45 39 41 50 51 43 31 42 28 40 51 45 35 45 47 45 49 60 45 44 50 39 35 32 255 255 244 255 255 255 255 255 255 255 255 255 255 255 255 255 255 255 255 255 255 255 255 255 255 255 255 
254 255 255 255 255 255 255 254 255 255 254 255 255 255 253 254 255 251 254 255 251 254 255 250 254 255 249 3 4 0 0 2 0 0 3 0 0 6 2 0 5 2 0 5 4 0 5 5 0 0 12 2 2 14 251 251 255 255 254 255 255 253 255 255 249 255 7 0 12 4 0 4 0 0 0 0 3 0 0 4 4 0 4 12 0 0 14 0 0 11 4 4 6 255 254 249 255 255 255 255 255 255 255 255 255 255 255 255 255 255 255 255 255 255 255 255 255 255 255 255 
251 255 255 254 255 255 255 254 255 255 253 253 255 255 251 254 255 250 251 255 251 249 255 251 251 255 253 0 2 1 0 1 0 0 3 0 0 6 2 0 6 0 0 9 2 0 4 0 4 0 10 1 0 7 252 255 255 248 255 255 248 255 255 254 255 255 6 0 0 9 0 0 6 0 0 3 3 3 0 4 7 0 1 9 0 0 12 0 0 7 2 2 4 254 255 251 255 255 255 255 255 255 255 255 255 255 255 255 255 255 255 255 255 255 255 255 255 255 255 255 
248 255 255 252 255 255 255 254 255 255 253 251 255 255 250 254 255 250 249 255 251 249 255 255 251 255 255 0 0 5 0 0 5 3 4 8 1 0 0 6 0 0 13 0 0 18 0 0 25 0 0 16 0 0 252 254 251 241 255 253 241 255 250 250 255 242 16 0 0 25 0 0 25 0 0 16 0 0 10 0 0 11 0 0 23 0 2 15 0 0 10 0 0 254 255 247 255 255 255 255 255 255 255 255 255 255 255 255 255 255 255 255 255 255 255 255 255 255 255 255 
247 255 255 252 255 255 253 249 250 255 253 250 255 254 248 253 254 248 251 255 253 251 255 255 252 255 255 1 1 13 0 0 11 4 0 4 19 0 0 29 0 0 45 0 0 58 0 0 63 0 0 41 0 0 255 253 247 235 255 253 235 255 248 255 255 235 38 0 0 55 0 0 59 0 0 45 0 0 39 0 0 45 0 0 52 0 0 46 0 0 28 0 0 255 252 239 253 253 253 255 255 255 255 255 255 255 255 255 254 254 254 255 255 255 254 254 254 255 255 255 
250 255 255 255 254 255 255 253 255 255 252 249 40 37 30 5 6 0 0 3 0 0 0 5 0 0 11 250 249 255 255 253 255 255 251 255 255 242 240 151 78 72 182 67 62 204 62 58 212 58 46 173 75 66 17 0 0 0 10 4 0 10 0 18 0 0 167 79 59 196 66 50 195 63 50 185 71 60 180 73 63 192 71 62 194 61 54 189 70 62 167 91 78 31 0 0 2 2 2 1 1 1 0 0 0 0 0 0 255 255 255 255 255 255 252 252 252 251 251 251 
255 254 255 255 252 255 255 252 255 255 253 250 44 43 38 0 2 0 0 1 0 0 0 5 0 0 9 253 251 255 255 254 255 255 250 247 255 239 231 177 79 70 212 59 54 235 47 45 247 44 29 200 63 57 30 0 0 0 9 13 0 8 7 34 0 0 193 67 53 228 52 37 232 57 40 217 61 46 211 61 46 224 56 45 238 55 49 213 52 44 180 72 60 45 0 0 0 0 0 1 1 1 1 1 1 0 0 0 255 255 255 255 255 255 254 254 254 255 255 255 
255 253 255 255 249 255 255 251 255 255 252 252 41 42 37 0 3 0 0 3 0 3 4 6 4 0 4 255 251 255 255 249 246 255 248 237 255 238 223 181 68 52 230 59 49 245 37 33 255 40 23 213 58 53 42 0 0 0 0 12 0 0 7 46 0 0 209 60 53 245 47 36 241 44 28 227 52 33 227 56 38 240 48 35 245 38 32 237 55 51 189 68 59 49 0 0 2 2 2 0 0 0 0 0 0 2 2 2 253 253 253 255 255 255 255 255 255 252 252 252 
255 254 255 255 250 255 255 250 255 255 252 255 39 41 40 0 9 5 0 4 0 1 0 0 14 0 0 255 245 243 255 238 230 255 239 221 255 226 203 195 66 45 222 49 33 252 48 37 254 43 24 218 57 49 61 0 0 23 0 0 25 0 0 64 0 0 216 57 51 247 45 35 245 45 30 233 54 34 233 58 37 240 47 30 255 48 38 227 48 41 191 72 64 48 0 0 0 0 0 2 2 2 2 2 2 0 0 0 255 255 255 253 253 253 254 254 254 255 255 255 
245 251 249 255 254 255 255 251 255 252 242 250 44 48 51 0 5 2 0 5 0 8 1 0 29 0 0 155 82 75 175 77 66 178 65 49 196 67 46 220 69 48 227 52 33 239 48 30 237 51 30 216 52 42 197 72 68 172 78 76 170 80 72 196 74 63 219 51 40 244 45 38 247 50 41 228 48 31 232 58 34 234 48 25 245 49 33 220 52 43 184 71 63 48 0 0 0 0 0 1 1 1 0 0 0 3 3 3 252 252 252 255 255 255 254 254 254 255 255 255 
242 255 251 250 255 252 255 250 255 255 249 255 40 40 48 0 9 8 0 6 0 11 0 0 47 0 0 183 68 61 208 55 49 229 58 48 227 52 35 229 54 35 225 48 28 236 57 37 221 55 33 231 60 43 220 50 37 221 59 44 215 63 40 213 55 30 237 57 40 241 44 36 238 40 37 241 57 45 228 49 27 238 54 28 241 55 32 219 57 44 184 69 64 53 0 0 0 0 0 2 2 2 0 0 0 0 0 0 255 255 255 255 255 255 252 252 252 254 254 254 
236 255 248 246 255 251 255 252 255 255 250 255 41 41 49 0 4 4 0 4 0 19 0 0 56 0 0 206 65 58 238 51 46 247 40 34 247 43 32 244 53 35 233 54 34 224 54 31 216 60 38 232 52 35 247 46 28 250 46 21 243 50 17 237 52 21 239 50 28 244 45 38 245 45 45 235 44 36 240 58 36 234 49 19 232 48 22 221 61 45 187 68 64 61 0 0 3 3 3 0 0 0 2 2 2 3 3 3 253 253 253 253 253 253 255 255 255 253 253 253 
255 250 255 255 255 255 252 255 251 250 255 248 42 49 42 0 5 2 0 6 5 1 0 0 42 0 0 203 67 71 241 49 44 244 39 18 246 53 20 237 54 23 239 46 29 252 42 41 238 53 23 241 49 34 242 45 39 243 44 37 237 48 29 235 54 33 226 50 27 233 55 27 231 57 20 227 58 19 229 50 27 251 44 38 255 35 41 250 37 39 209 62 54 62 0 0 1 1 1 0 0 0 0 0 0 0 0 0 255 255 255 255 255 255 255 255 255 255 255 255 
252 255 255 251 255 255 253 255 252 255 254 251 47 38 39 2 2 4 0 8 9 3 0 0 37 0 0 181 62 54 222 55 37 241 60 31 227 58 19 218 53 21 234 57 41 244 50 48 234 49 28 236 48 37 236 47 45 239 50 46 236 53 39 236 56 41 234 54 40 236 53 37 226 52 25 221 62 30 210 60 36 226 62 53 227 49 47 220 63 56 170 73 57 34 0 0 0 0 0 0 0 0 3 3 3 0 0 0 255 255 255 253 253 253 255 255 255 255 255 255 
251 255 255 251 255 255 255 254 255 255 248 252 52 35 43 6 0 4 0 1 3 6 0 0 41 0 0 190 74 59 222 57 37 229 51 21 225 58 22 222 63 33 219 51 38 230 48 47 240 53 34 235 51 41 231 49 46 229 50 43 229 49 35 229 47 36 239 47 44 241 42 37 240 50 36 220 55 33 207 68 49 149 19 6 142 14 5 127 21 8 101 44 25 13 0 0 1 1 1 0 0 0 0 0 0 0 0 0 254 254 254 255 255 255 255 255 255 253 253 253 
255 252 255 255 253 254 255 254 255 255 253 255 46 41 48 0 0 5 0 1 0 13 0 0 50 0 0 202 61 54 238 47 37 250 47 30 239 50 28 232 57 38 231 54 46 233 47 50 237 47 23 233 50 32 228 55 39 232 60 40 236 57 35 237 50 35 251 49 45 253 39 37 255 45 39 236 46 34 215 57 46 152 15 9 138 15 8 129 28 16 102 40 27 24 0 0 1 1 1 1 1 1 2 2 2 0 0 0 255 255 255 254 254 254 255 255 255 255 255 255 
255 246 249 255 247 249 255 255 255 246 254 255 39 50 52 0 5 4 0 3 0 19 0 0 59 0 0 207 58 60 240 44 48 250 40 39 239 45 35 231 49 36 231 47 39 243 49 49 240 52 23 233 55 29 225 55 30 226 55 27 229 51 23 231 49 28 240 47 40 248 43 40 249 37 33 244 45 38 230 58 56 156 12 12 141 16 14 127 22 18 103 28 23 36 0 0 0 0 0 0 0 0 0 0 0 0 0 0 255 255 255 255 255 255 254 254 254 255 255 255 
255 248 250 255 251 250 254 255 255 247 255 255 29 41 41 0 7 5 0 3 0 12 0 0 39 0 0 178 73 77 205 69 71 202 54 50 212 66 51 218 65 47 227 52 35 242 46 34 234 54 27 228 56 32 224 54 31 229 55 28 231 56 29 233 62 42 217 54 45 221 58 51 221 54 45 220 62 53 199 61 59 128 18 21 120 30 32 104 30 29 97 41 42 31 0 0 0 0 0 1 1 1 3 3 3 1 1 1 255 255 255 254 254 254 255 255 255 255 255 255 
255 250 247 253 254 249 251 255 253 252 255 255 255 255 255 252 250 251 253 252 250 255 255 250 255 251 248 24 0 0 29 0 0 38 0 0 52 0 0 184 75 46 220 59 31 248 50 24 229 52 36 228 55 39 230 55 38 238 56 35 233 51 30 214 52 37 151 17 8 135 18 9 134 24 9 124 22 8 110 31 24 36 0 0 20 0 0 13 0 0 10 0 0 255 249 255 255 255 255 254 254 254 252 252 252 255 255 255 253 253 253 255 255 255 254 254 254 251 251 251 
254 255 250 251 255 251 247 255 251 252 255 255 252 246 248 255 251 255 255 252 253 252 254 253 247 255 255 0 5 2 0 6 0 0 3 0 25 0 0 169 80 50 221 60 32 254 44 19 237 50 41 235 51 41 236 46 34 247 47 31 243 48 30 225 59 47 144 17 10 123 25 14 114 27 10 113 37 21 87 37 26 13 0 0 0 5 0 0 6 0 0 7 3 251 254 255 255 255 255 253 253 253 255 255 255 255 255 255 252 252 252 254 254 254 255 255 255 255 255 255 
255 255 250 251 255 253 248 255 255 249 255 255 255 255 255 255 253 255 255 253 255 255 255 255 246 255 255 0 5 10 0 4 7 1 0 0 31 0 0 179 77 63 227 55 41 255 39 25 243 44 41 241 46 40 247 49 36 249 45 21 247 48 25 225 55 40 142 13 7 128 25 18 125 29 15 112 23 9 100 37 28 17 0 0 0 4 0 0 8 0 0 1 0 255 253 255 255 255 255 255 255 255 255 255 255 255 255 255 255 255 255 255 255 255 255 255 255 255 255 255 
255 254 251 255 255 255 249 255 255 249 255 255 251 255 255 255 255 255 255 254 255 255 254 255 255 254 255 0 0 7 4 0 9 23 0 8 41 0 0 186 76 79 212 48 47 247 47 47 236 50 53 235 51 49 230 47 33 239 49 25 238 54 28 211 58 42 141 26 21 120 25 21 122 23 17 135 31 28 108 26 28 29 0 0 9 1 0 0 3 0 2 1 0 255 248 252 255 255 255 255 255 255 255 255 255 255 255 255 255 255 255 255 255 255 255 255 255 255 255 255 
255 254 255 255 254 255 254 255 255 254 254 255 255 254 255 255 254 255 255 255 255 254 255 253 248 253 249 4 4 6 5 0 5 15 0 2 34 0 0 168 85 93 186 67 73 208 68 71 202 65 73 201 61 62 211 60 49 220 58 37 213 58 36 185 63 50 115 34 33 94 32 33 99 31 30 109 31 31 100 33 42 29 0 7 1 0 2 0 4 0 0 4 0 248 253 255 255 255 255 255 255 255 255 255 255 255 255 255 255 255 255 255 255 255 255 255 255 255 255 255 
255 254 255 255 254 255 255 251 255 255 250 255 255 250 255 255 253 255 254 255 253 249 255 250 247 255 248 246 255 249 251 255 253 255 254 253 255 246 248 27 0 0 42 0 0 46 0 0 45 0 0 56 0 0 129 21 11 152 17 0 149 16 0 129 32 25 34 0 0 15 0 0 16 0 0 22 0 0 20 0 0 255 247 255 249 255 255 245 255 255 244 255 255 247 255 255 255 255 255 255 255 255 255 255 255 255 255 255 255 255 255 255 255 255 255 255 255 255 255 255 
255 255 255 255 254 255 255 252 255 255 250 255 255 251 255 255 253 255 254 255 251 249 255 248 244 255 245 245 255 250 243 254 246 254 255 253 255 251 252 6 0 0 7 0 0 12 3 0 6 0 0 24 0 0 113 37 23 139 24 3 137 16 0 115 30 23 22 0 0 0 2 0 0 4 0 7 8 0 1 0 0 252 255 255 247 252 255 254 255 255 255 254 253 255 248 249 255 255 255 255 255 255 255 255 255 255 255 255 255 255 255 255 255 255 255 255 255 255 255 255 
254 255 255 255 255 255 255 253 255 255 253 255 255 254 255 255 255 253 255 255 250 254 255 250 252 255 250 242 247 243 255 255 255 254 252 255 255 253 255 5 4 2 0 3 0 0 5 0 0 5 2 8 0 0 94 38 21 127 28 5 131 24 4 110 33 25 21 0 0 0 2 1 0 4 0 0 3 0 0 1 0 250 254 255 255 254 255 255 250 248 255 245 242 255 247 246 255 255 255 255 255 255 255 255 255 255 255 255 255 255 255 255 255 255 255 255 255 255 255 255 
249 255 255 251 255 255 254 255 253 255 255 250 255 255 248 255 255 248 255 254 250 255 254 251 255 253 255 255 254 255 250 247 254 255 253 255 254 249 253 1 0 0 0 8 0 0 6 0 0 4 16 6 0 2 86 43 34 104 32 10 112 34 14 96 43 37 13 0 2 1 0 10 1 0 0 10 3 0 4 3 0 245 250 254 252 255 255 255 253 253 255 251 247 255 249 246 255 255 255 255 255 255 255 255 255 255 255 255 255 255 255 255 255 255 255 255 255 255 255 255 
245 255 255 248 255 253 251 255 250 255 255 246 255 255 244 255 254 244 255 252 248 255 251 253 255 248 255 255 253 255 252 254 255 252 252 255 255 254 255 255 255 251 253 255 245 251 255 243 253 250 255 255 248 255 25 0 0 39 0 0 42 0 0 22 0 0 255 249 255 254 252 255 255 251 255 255 246 250 253 250 255 247 255 255 242 255 255 245 255 255 245 255 250 247 255 253 255 255 255 255 255 255 255 255 255 255 255 255 255 255 255 255 255 255 255 255 255 255 255 255 
255 255 255 255 255 255 255 255 255 255 255 255 255 255 255 255 255 255 255 255 255 255 255 255 255 255 255 255 255 255 255 255 255 255 255 255 255 255 255 255 255 255 255 255 255 255 255 255 255 255 255 254 254 254 1 1 1 0 0 0 0 0 0 1 1 1 254 254 254 255 255 255 255 255 255 255 255 255 255 255 255 255 255 255 255 255 255 255 255 255 255 255 255 255 255 255 255 255 255 255 255 255 255 255 255 255 255 255 255 255 255 255 255 255 255 255 255 255 255 255 
255 255 255 255 255 255 255 255 255 255 255 255 255 255 255 255 255 255 255 255 255 255 255 255 255 255 255 255 255 255 255 255 255 255 255 255 255 255 255 255 255 255 255 255 255 255 255 255 255 255 255 255 255 255 0 0 0 0 0 0 0 0 0 0 0 0 255 255 255 255 255 255 255 255 255 255 255 255 255 255 255 255 255 255 255 255 255 255 255 255 255 255 255 255 255 255 255 255 255 255 255 255 255 255 255 255 255 255 255 255 255 255 255 255 255 255 255 255 255 255 
255 255 255 255 255 255 255 255 255 255 255 255 255 255 255 255 255 255 255 255 255 255 255 255 255 255 255 255 255 255 255 255 255 255 255 255 255 255 255 255 255 255 255 255 255 255 255 255 254 254 254 255 255 255 0 0 0 3 3 3 3 3 3 0 0 0 255 255 255 254 254 254 255 255 255 255 255 255 255 255 255 255 255 255 255 255 255 255 255 255 255 255 255 255 255 255 255 255 255 255 255 255 255 255 255 255 255 255 255 255 255 255 255 255 255 255 255 255 255 255 
255 255 255 255 255 255 255 255 255 255 255 255 255 255 255 255 255 255 255 255 255 255 255 255 255 255 255 255 255 255 255 255 255 255 255 255 255 255 255 255 255 255 255 255 255 255 255 255 255 255 255 253 253 253 1 1 1 0 0 0 0 0 0 1 1 1 253 253 253 255 255 255 255 255 255 255 255 255 255 255 255 255 255 255 255 255 255 255 255 255 255 255 255 255 255 255 255 255 255 255 255 255 255 255 255 255 255 255 255 255 255 255 255 255 255 255 255 255 255 255 
255 255 255 255 255 255 255 255 255 255 255 255 255 255 255 255 255 255 255 255 255 255 255 255 255 255 255 255 255 255 255 255 255 255 255 255 255 255 255 255 255 255 255 255 255 255 255 255 255 255 255 255 255 255 255 255 255 255 255 255 255 255 255 255 255 255 255 255 255 255 255 255 255 255 255 255 255 255 255 255 255 255 255 255 255 255 255 255 255 255 255 255 255 255 255 255 255 255 255 255 255 255 255 255 255 255 255 255 255 255 255 255 255 255 255 255 255 255 255 255 
255 255 255 255 255 255 255 255 255 255 255 255 255 255 255 255 255 255 255 255 255 255 255 255 255 255 255 255 255 255 255 255 255 255 255 255 255 255 255 255 255 255 255 255 255 255 255 255 255 255 255 253 253 253 255 255 255 252 252 252 252 252 252 255 255 255 253 253 253 255 255 255 255 255 255 255 255 255 255 255 255 255 255 255 255 255 255 255 255 255 255 255 255 255 255 255 255 255 255 255 255 255 255 255 255 255 255 255 255 255 255 255 255 255 255 255 255 255 255 255 
255 255 255 255 255 255 255 255 255 255 255 255 255 255 255 255 255 255 255 255 255 255 255 255 255 255 255 255 255 255 255 255 255 255 255 255 255 255 255 255 255 255 255 255 255 255 255 255 255 255 255 253 253 253 255 255 255 255 255 255 255 255 255 255 255 255 253 253 253 255 255 255 255 255 255 255 255 255 255 255 255 255 255 255 255 255 255 255 255 255 255 255 255 255 255 255 255 255 255 255 255 255 255 255 255 255 255 255 255 255 255 255 255 255 255 255 255 255 255 255 
255 255 255 255 255 255 255 255 255 255 255 255 255 255 255 255 255 255 255 255 255 255 255 255 255 255 255 255 255 255 255 255 255 255 255 255 255 255 255 255 255 255 255 255 255 255 255 255 255 255 255 255 255 255 255 255 255 255 255 255 255 255 255 255 255 255 255 255 255 255 255 255 255 255 255 255 255 255 255 255 255 255 255 255 255 255 255 255 255 255 255 255 255 255 255 255 255 255 255 255 255 255 255 255 255 255 255 255 255 255 255 255 255 255 255 255 255 255 255 255 
