# Blender v2.80 (sub 75) OBJ File: ''
# www.blender.org
mtllib woodTxt.mtl
o Cylinder
v 0.559938 0.566552 -3.931329
v 0.559939 0.566550 1.503416
v 0.612774 0.508939 1.503416
v 0.612773 0.508941 -3.931329
v 0.659708 0.446426 1.503416
v 0.659707 0.446428 -3.931329
v 0.700289 0.379613 1.503416
v 0.700288 0.379615 -3.931329
v 0.734126 0.309145 1.503416
v 0.734125 0.309147 -3.931329
v 0.760892 0.235700 1.503416
v 0.760891 0.235702 -3.931329
v 0.780331 0.159984 1.503416
v 0.780330 0.159986 -3.931329
v 0.792254 0.082728 1.503416
v 0.792254 0.082730 -3.931329
v 0.796548 0.004675 1.503416
v 0.796548 0.004677 -3.931329
v 0.793171 -0.073423 1.503416
v 0.793170 -0.073421 -3.931329
v 0.782155 -0.150813 1.503416
v 0.782154 -0.150811 -3.931329
v 0.763606 -0.226752 1.503416
v 0.763606 -0.226750 -3.931329
v 0.737704 -0.300506 1.503416
v 0.737703 -0.300504 -3.931329
v 0.704697 -0.371367 1.503416
v 0.704696 -0.371365 -3.931329
v 0.664903 -0.438651 1.503416
v 0.664902 -0.438649 -3.931329
v 0.618706 -0.501711 1.503416
v 0.618705 -0.501709 -3.931329
v 0.566551 -0.559939 1.503416
v 0.566550 -0.559937 -3.931329
v 0.508939 -0.612774 1.503416
v 0.508938 -0.612772 -3.931329
v 0.446426 -0.659708 1.503416
v 0.446425 -0.659706 -3.931329
v 0.379614 -0.700289 1.503416
v 0.379613 -0.700287 -3.931329
v 0.309145 -0.734125 1.503416
v 0.309144 -0.734123 -3.931329
v 0.235700 -0.760892 1.503416
v 0.235699 -0.760890 -3.931329
v 0.159984 -0.780330 1.503416
v 0.159984 -0.780329 -3.931329
v 0.082728 -0.792254 1.503416
v 0.082727 -0.792252 -3.931329
v 0.004675 -0.796548 1.503416
v 0.004674 -0.796546 -3.931329
v -0.073423 -0.793171 1.503416
v -0.073423 -0.793169 -3.931329
v -0.150813 -0.782155 1.503416
v -0.150814 -0.782153 -3.931329
v -0.226752 -0.763606 1.503416
v -0.226753 -0.763604 -3.931329
v -0.300506 -0.737703 1.503416
v -0.300507 -0.737701 -3.931329
v -0.371367 -0.704696 1.503416
v -0.371368 -0.704694 -3.931329
v -0.438651 -0.664903 1.503416
v -0.438652 -0.664901 -3.931329
v -0.501711 -0.618705 1.503417
v -0.501712 -0.618704 -3.931329
v -0.559939 -0.566550 1.503417
v -0.559939 -0.566548 -3.931329
v -0.612774 -0.508938 1.503417
v -0.612775 -0.508936 -3.931329
v -0.659708 -0.446425 1.503417
v -0.659709 -0.446423 -3.931329
v -0.700289 -0.379613 1.503417
v -0.700289 -0.379611 -3.931329
v -0.734125 -0.309144 1.503417
v -0.734126 -0.309142 -3.931329
v -0.760892 -0.235699 1.503417
v -0.760892 -0.235697 -3.931329
v -0.780330 -0.159983 1.503417
v -0.780331 -0.159981 -3.931329
v -0.792254 -0.082727 1.503417
v -0.792255 -0.082725 -3.931329
v -0.796548 -0.004674 1.503417
v -0.796548 -0.004672 -3.931329
v -0.793170 0.073423 1.503417
v -0.793171 0.073425 -3.931329
v -0.782154 0.150814 1.503417
v -0.782155 0.150816 -3.931329
v -0.763606 0.226752 1.503417
v -0.763606 0.226754 -3.931329
v -0.737703 0.300507 1.503417
v -0.737704 0.300509 -3.931329
v -0.704696 0.371367 1.503416
v -0.704697 0.371369 -3.931329
v -0.664903 0.438651 1.503416
v -0.664903 0.438653 -3.931329
v -0.618706 0.501711 1.503416
v -0.618706 0.501712 -3.931329
v -0.566550 0.559938 1.503416
v -0.566551 0.559940 -3.931329
v -0.508939 0.612774 1.503416
v -0.508940 0.612776 -3.931329
v -0.446426 0.659708 1.503416
v -0.446427 0.659709 -3.931329
v -0.379614 0.700288 1.503416
v -0.379615 0.700290 -3.931329
v -0.309146 0.734125 1.503416
v -0.309146 0.734127 -3.931329
v -0.235700 0.760891 1.503416
v -0.235701 0.760893 -3.931329
v -0.159985 0.780330 1.503416
v -0.159986 0.780332 -3.931329
v -0.082729 0.792254 1.503416
v -0.082730 0.792256 -3.931329
v -0.004677 0.796548 1.503416
v -0.004677 0.796550 -3.931329
v 0.073421 0.793171 1.503416
v 0.073420 0.793173 -3.931329
v 0.150812 0.782155 1.503416
v 0.150811 0.782157 -3.931329
v 0.226750 0.763607 1.503416
v 0.226749 0.763609 -3.931329
v 0.300505 0.737704 1.503416
v 0.300504 0.737706 -3.931329
v 0.371365 0.704698 1.503416
v 0.371364 0.704700 -3.931329
v 0.438649 0.664904 1.503416
v 0.438648 0.664906 -3.931329
v 0.501708 0.618709 -3.931329
v 0.501709 0.618708 1.503416
vt 0.500000 1.000000
vt 0.500000 0.000000
vt 0.549009 0.000000
vt 0.549009 1.000000
vt 0.597545 0.000000
vt 0.597545 1.000000
vt 0.645143 0.000000
vt 0.645143 1.000000
vt 0.691342 0.000000
vt 0.691342 1.000000
vt 0.735698 0.000000
vt 0.735698 1.000000
vt 0.777785 0.000000
vt 0.777785 1.000000
vt 0.817197 0.000000
vt 0.817197 1.000000
vt 0.853553 0.000000
vt 0.853553 1.000000
vt 0.886505 0.000000
vt 0.886505 1.000000
vt 0.915734 0.000000
vt 0.915734 1.000000
vt 0.940961 0.000000
vt 0.940961 1.000000
vt 0.961940 0.000000
vt 0.961940 1.000000
vt 0.978470 0.000000
vt 0.978470 1.000000
vt 0.990392 0.000000
vt 0.990392 1.000000
vt 0.997592 0.000000
vt 0.997592 1.000000
vt 1.000000 0.000000
vt 1.000000 1.000000
vt 0.997592 0.000000
vt 0.997592 1.000000
vt 0.990392 0.000000
vt 0.990392 1.000000
vt 0.978470 0.000000
vt 0.978470 1.000000
vt 0.961940 0.000000
vt 0.961940 1.000000
vt 0.940961 0.000000
vt 0.940961 1.000000
vt 0.915734 0.000000
vt 0.915734 1.000000
vt 0.886505 0.000000
vt 0.886505 1.000000
vt 0.853553 0.000000
vt 0.853553 1.000000
vt 0.817197 0.000000
vt 0.817197 1.000000
vt 0.777785 0.000000
vt 0.777785 1.000000
vt 0.735698 0.000000
vt 0.735698 1.000000
vt 0.691342 0.000000
vt 0.691342 1.000000
vt 0.645143 0.000000
vt 0.645143 1.000000
vt 0.597545 0.000000
vt 0.597545 1.000000
vt 0.549009 0.000000
vt 0.549009 1.000000
vt 0.500000 0.000000
vt 0.500000 1.000000
vt 0.450991 0.000000
vt 0.450991 1.000000
vt 0.402455 0.000000
vt 0.402455 1.000000
vt 0.354857 0.000000
vt 0.354857 1.000000
vt 0.308658 0.000000
vt 0.308658 1.000000
vt 0.264301 0.000000
vt 0.264301 1.000000
vt 0.222214 0.000000
vt 0.222214 1.000000
vt 0.182803 0.000000
vt 0.182803 1.000000
vt 0.146446 0.000000
vt 0.146446 1.000000
vt 0.113494 0.000000
vt 0.113494 1.000000
vt 0.084265 0.000000
vt 0.084265 1.000000
vt 0.059039 0.000000
vt 0.059039 1.000000
vt 0.038060 0.000000
vt 0.038060 1.000000
vt 0.021530 0.000000
vt 0.021530 1.000000
vt 0.009607 0.000000
vt 0.009607 1.000000
vt 0.002408 0.000000
vt 0.002408 1.000000
vt 0.000000 0.000000
vt 0.000000 1.000000
vt 0.002408 0.000000
vt 0.002408 1.000000
vt 0.009607 0.000000
vt 0.009607 1.000000
vt 0.021530 0.000000
vt 0.021530 1.000000
vt 0.038060 0.000000
vt 0.038060 1.000000
vt 0.059039 0.000000
vt 0.059039 1.000000
vt 0.084265 0.000000
vt 0.084265 1.000000
vt 0.113494 0.000000
vt 0.113494 1.000000
vt 0.146446 0.000000
vt 0.146446 1.000000
vt 0.182803 0.000000
vt 0.182803 1.000000
vt 0.222214 0.000000
vt 0.222214 1.000000
vt 0.264301 0.000000
vt 0.264301 1.000000
vt 0.308658 0.000000
vt 0.308658 1.000000
vt 0.354857 0.000000
vt 0.354857 1.000000
vt 0.402455 0.000000
vt 0.402455 1.000000
vt 0.450991 1.000000
vt 0.450991 0.000000
vt 0.668614 0.971240
vt 0.621612 0.985498
vt 0.573437 0.995081
vt 0.524557 0.999895
vt 0.475440 0.999895
vt 0.426559 0.995081
vt 0.378386 0.985498
vt 0.331384 0.971240
vt 0.286006 0.952444
vt 0.242687 0.929289
vt 0.201849 0.902002
vt 0.163882 0.870843
vt 0.129151 0.836112
vt 0.097992 0.798145
vt 0.070705 0.757306
vt 0.047550 0.713988
vt 0.028754 0.668611
vt 0.014497 0.621610
vt 0.004915 0.573438
vt 0.000100 0.524558
vt 0.000100 0.475444
vt 0.004913 0.426567
vt 0.014495 0.378395
vt 0.028753 0.331392
vt 0.047549 0.286012
vt 0.070702 0.242694
vt 0.097989 0.201856
vt 0.129149 0.163887
vt 0.163880 0.129155
vt 0.201850 0.097994
vt 0.242690 0.070705
vt 0.286007 0.047551
vt 0.331384 0.028755
vt 0.378386 0.014497
vt 0.426560 0.004914
vt 0.475442 0.000100
vt 0.524559 0.000100
vt 0.573440 0.004914
vt 0.621614 0.014496
vt 0.668614 0.028754
vt 0.713992 0.047550
vt 0.757310 0.070704
vt 0.798149 0.097992
vt 0.836118 0.129152
vt 0.870848 0.163882
vt 0.902006 0.201849
vt 0.929294 0.242688
vt 0.952448 0.286006
vt 0.971246 0.331387
vt 0.985504 0.378391
vt 0.995086 0.426565
vt 0.999900 0.475444
vt 0.999900 0.524559
vt 0.995085 0.573441
vt 0.985502 0.621614
vt 0.971244 0.668617
vt 0.952448 0.713993
vt 0.929295 0.757309
vt 0.902007 0.798146
vt 0.870848 0.836114
vt 0.836116 0.870845
vt 0.798149 0.902003
vt 0.757310 0.929291
vt 0.713992 0.952444
vt 0.621614 0.014496
vt 0.668614 0.028754
vt 0.713987 0.047548
vt 0.757310 0.070704
vt 0.798149 0.097992
vt 0.836114 0.129149
vt 0.870848 0.163882
vt 0.902006 0.201849
vt 0.929294 0.242688
vt 0.952448 0.286006
vt 0.971246 0.331387
vt 0.985504 0.378391
vt 0.995086 0.426565
vt 0.999900 0.475444
vt 0.999900 0.524559
vt 0.995085 0.573441
vt 0.985502 0.621614
vt 0.971244 0.668617
vt 0.952448 0.713993
vt 0.929295 0.757309
vt 0.902003 0.798153
vt 0.870848 0.836114
vt 0.836111 0.870852
vt 0.798149 0.902003
vt 0.757310 0.929291
vt 0.713987 0.952451
vt 0.668614 0.971240
vt 0.621612 0.985498
vt 0.573437 0.995081
vt 0.524557 0.999895
vt 0.475440 0.999895
vt 0.426559 0.995081
vt 0.378386 0.985498
vt 0.331384 0.971240
vt 0.286006 0.952444
vt 0.242687 0.929289
vt 0.201849 0.902002
vt 0.163882 0.870843
vt 0.129145 0.836110
vt 0.097992 0.798145
vt 0.070705 0.757306
vt 0.047548 0.713988
vt 0.028754 0.668611
vt 0.014497 0.621610
vt 0.004915 0.573438
vt 0.000100 0.524558
vt 0.000100 0.475444
vt 0.004913 0.426567
vt 0.014495 0.378395
vt 0.028753 0.331392
vt 0.047552 0.286009
vt 0.070702 0.242694
vt 0.097989 0.201856
vt 0.129153 0.163885
vt 0.163880 0.129155
vt 0.201850 0.097994
vt 0.242690 0.070705
vt 0.286007 0.047551
vt 0.331384 0.028755
vt 0.378386 0.014497
vt 0.426560 0.004914
vt 0.475442 0.000100
vt 0.524559 0.000100
vt 0.573440 0.004914
vn 0.7370 0.6759 0.0000
vn 0.7997 0.6004 0.0000
vn 0.8547 0.5191 0.0000
vn 0.9015 0.4329 -0.0000
vn 0.9396 0.3424 -0.0000
vn 0.9686 0.2487 -0.0000
vn 0.9883 0.1525 -0.0000
vn 0.9985 0.0549 0.0000
vn 0.9991 -0.0432 -0.0000
vn 0.9900 -0.1409 -0.0000
vn 0.9714 -0.2373 -0.0000
vn 0.9435 -0.3314 -0.0000
vn 0.9065 -0.4222 -0.0000
vn 0.8607 -0.5091 -0.0000
vn 0.8067 -0.5910 -0.0000
vn 0.7449 -0.6672 -0.0000
vn 0.6759 -0.7370 -0.0000
vn 0.6004 -0.7997 -0.0000
vn 0.5191 -0.8547 -0.0000
vn 0.4328 -0.9015 -0.0000
vn 0.3424 -0.9395 -0.0000
vn 0.2487 -0.9686 -0.0000
vn 0.1525 -0.9883 -0.0000
vn 0.0549 -0.9985 -0.0000
vn -0.0432 -0.9991 -0.0000
vn -0.1409 -0.9900 -0.0000
vn -0.2373 -0.9714 -0.0000
vn -0.3314 -0.9435 -0.0000
vn -0.4222 -0.9065 -0.0000
vn -0.5091 -0.8607 -0.0000
vn -0.5910 -0.8067 -0.0000
vn -0.6672 -0.7449 -0.0000
vn -0.7370 -0.6759 -0.0000
vn -0.7997 -0.6004 -0.0000
vn -0.8547 -0.5191 -0.0000
vn -0.9015 -0.4328 -0.0000
vn -0.9395 -0.3424 -0.0000
vn -0.9686 -0.2487 0.0000
vn -0.9883 -0.1525 0.0000
vn -0.9985 -0.0549 0.0000
vn -0.9991 0.0432 0.0000
vn -0.9900 0.1409 0.0000
vn -0.9714 0.2373 0.0000
vn -0.9435 0.3314 0.0000
vn -0.9065 0.4222 0.0000
vn -0.8607 0.5091 0.0000
vn -0.8067 0.5910 0.0000
vn -0.7449 0.6672 0.0000
vn -0.6759 0.7370 0.0000
vn -0.6004 0.7997 0.0000
vn -0.5191 0.8547 0.0000
vn -0.4329 0.9015 0.0000
vn -0.3424 0.9396 0.0000
vn -0.2487 0.9686 0.0000
vn -0.1525 0.9883 0.0000
vn -0.0549 0.9985 0.0000
vn 0.0432 0.9991 0.0000
vn 0.1409 0.9900 0.0000
vn 0.2373 0.9714 0.0000
vn 0.3314 0.9435 0.0000
vn 0.4222 0.9065 0.0000
vn 0.5091 0.8607 0.0000
vn 0.6672 0.7449 0.0000
vn 0.5910 0.8067 0.0000
vn 0.0000 -0.0000 1.0000
vn 0.0000 0.0000 -1.0000
usemtl wood
s 1
f 1/1/1 2/2/1 3/3/1 4/4/1
f 4/4/2 3/3/2 5/5/2 6/6/2
f 6/6/3 5/5/3 7/7/3 8/8/3
f 8/8/4 7/7/4 9/9/4 10/10/4
f 10/10/5 9/9/5 11/11/5 12/12/5
f 12/12/6 11/11/6 13/13/6 14/14/6
f 14/14/7 13/13/7 15/15/7 16/16/7
f 16/16/8 15/15/8 17/17/8 18/18/8
f 18/18/9 17/17/9 19/19/9 20/20/9
f 20/20/10 19/19/10 21/21/10 22/22/10
f 22/22/11 21/21/11 23/23/11 24/24/11
f 24/24/12 23/23/12 25/25/12 26/26/12
f 26/26/13 25/25/13 27/27/13 28/28/13
f 28/28/14 27/27/14 29/29/14 30/30/14
f 30/30/15 29/29/15 31/31/15 32/32/15
f 32/32/16 31/31/16 33/33/16 34/34/16
f 34/34/17 33/33/17 35/35/17 36/36/17
f 36/36/18 35/35/18 37/37/18 38/38/18
f 38/38/19 37/37/19 39/39/19 40/40/19
f 40/40/20 39/39/20 41/41/20 42/42/20
f 42/42/21 41/41/21 43/43/21 44/44/21
f 44/44/22 43/43/22 45/45/22 46/46/22
f 46/46/23 45/45/23 47/47/23 48/48/23
f 48/48/24 47/47/24 49/49/24 50/50/24
f 50/50/25 49/49/25 51/51/25 52/52/25
f 52/52/26 51/51/26 53/53/26 54/54/26
f 54/54/27 53/53/27 55/55/27 56/56/27
f 56/56/28 55/55/28 57/57/28 58/58/28
f 58/58/29 57/57/29 59/59/29 60/60/29
f 60/60/30 59/59/30 61/61/30 62/62/30
f 62/62/31 61/61/31 63/63/31 64/64/31
f 64/64/32 63/63/32 65/65/32 66/66/32
f 66/66/33 65/65/33 67/67/33 68/68/33
f 68/68/34 67/67/34 69/69/34 70/70/34
f 70/70/35 69/69/35 71/71/35 72/72/35
f 72/72/36 71/71/36 73/73/36 74/74/36
f 74/74/37 73/73/37 75/75/37 76/76/37
f 76/76/38 75/75/38 77/77/38 78/78/38
f 78/78/39 77/77/39 79/79/39 80/80/39
f 80/80/40 79/79/40 81/81/40 82/82/40
f 82/82/41 81/81/41 83/83/41 84/84/41
f 84/84/42 83/83/42 85/85/42 86/86/42
f 86/86/43 85/85/43 87/87/43 88/88/43
f 88/88/44 87/87/44 89/89/44 90/90/44
f 90/90/45 89/89/45 91/91/45 92/92/45
f 92/92/46 91/91/46 93/93/46 94/94/46
f 94/94/47 93/93/47 95/95/47 96/96/47
f 96/96/48 95/95/48 97/97/48 98/98/48
f 98/98/49 97/97/49 99/99/49 100/100/49
f 100/100/50 99/99/50 101/101/50 102/102/50
f 102/102/51 101/101/51 103/103/51 104/104/51
f 104/104/52 103/103/52 105/105/52 106/106/52
f 106/106/53 105/105/53 107/107/53 108/108/53
f 108/108/54 107/107/54 109/109/54 110/110/54
f 110/110/55 109/109/55 111/111/55 112/112/55
f 112/112/56 111/111/56 113/113/56 114/114/56
f 114/114/57 113/113/57 115/115/57 116/116/57
f 116/116/58 115/115/58 117/117/58 118/118/58
f 118/118/59 117/117/59 119/119/59 120/120/59
f 120/120/60 119/119/60 121/121/60 122/122/60
f 122/122/61 121/121/61 123/123/61 124/124/61
f 124/124/62 123/123/62 125/125/62 126/126/62
f 127/127/63 128/128/63 2/2/63 1/1/63
f 126/126/64 125/125/64 128/128/64 127/127/64
usemtl wood2
f 3/129/65 2/130/65 128/131/65 125/132/65 123/133/65 121/134/65 119/135/65 117/136/65 115/137/65 113/138/65 111/139/65 109/140/65 107/141/65 105/142/65 103/143/65 101/144/65 99/145/65 97/146/65 95/147/65 93/148/65 91/149/65 89/150/65 87/151/65 85/152/65 83/153/65 81/154/65 79/155/65 77/156/65 75/157/65 73/158/65 71/159/65 69/160/65 67/161/65 65/162/65 63/163/65 61/164/65 59/165/65 57/166/65 55/167/65 53/168/65 51/169/65 49/170/65 47/171/65 45/172/65 43/173/65 41/174/65 39/175/65 37/176/65 35/177/65 33/178/65 31/179/65 29/180/65 27/181/65 25/182/65 23/183/65 21/184/65 19/185/65 17/186/65 15/187/65 13/188/65 11/189/65 9/190/65 7/191/65 5/192/65
f 1/193/66 4/194/66 6/195/66 8/196/66 10/197/66 12/198/66 14/199/66 16/200/66 18/201/66 20/202/66 22/203/66 24/204/66 26/205/66 28/206/66 30/207/66 32/208/66 34/209/66 36/210/66 38/211/66 40/212/66 42/213/66 44/214/66 46/215/66 48/216/66 50/217/66 52/218/66 54/219/66 56/220/66 58/221/66 60/222/66 62/223/66 64/224/66 66/225/66 68/226/66 70/227/66 72/228/66 74/229/66 76/230/66 78/231/66 80/232/66 82/233/66 84/234/66 86/235/66 88/236/66 90/237/66 92/238/66 94/239/66 96/240/66 98/241/66 100/242/66 102/243/66 104/244/66 106/245/66 108/246/66 110/247/66 112/248/66 114/249/66 116/250/66 118/251/66 120/252/66 122/253/66 124/254/66 126/255/66 127/256/66
